<svg id="f9d52f68-06fc-4f3c-b0b3-4744955c4188" data-name="Capa 1" xmlns="http://www.w3.org/2000/svg" xmlns:xlink="http://www.w3.org/1999/xlink" viewBox="0 0 468.26 439.61"><defs><style>.f2c99f74-f54d-4f6a-920b-57589215f967{fill:#fff;}.baeea368-f482-4f39-93db-f48ebed61020{mask:url(#eef244fe-473e-4e1a-95a6-f4e31397b917);}.b919f54c-dc83-445d-8082-7f54cb00b838{fill:none;stroke:#000;stroke-linecap:round;stroke-linejoin:round;stroke-width:25px;}.a7b53cbb-24d8-4a1e-8abc-065557e8aac6{fill:red;}.a21590f3-544c-4f30-84e8-e72673b68eb1{filter:url(#b4333ecf-6966-4100-91f5-acf933d9ecaa);}</style><filter id="b4333ecf-6966-4100-91f5-acf933d9ecaa" filterUnits="userSpaceOnUse" color-interpolation-filters="sRGB"><feColorMatrix values="-1 0 0 0 1 0 -1 0 0 1 0 0 -1 0 1 0 0 0 1 0"/></filter><mask id="eef244fe-473e-4e1a-95a6-f4e31397b917" x="-70.81" y="-65.94" width="580.56" height="575.69" maskUnits="userSpaceOnUse"><g class="a21590f3-544c-4f30-84e8-e72673b68eb1"><g transform="translate(-80.19 -80.19)"><rect x="9.39" y="14.25" width="580.56" height="575.69"/><path class="f2c99f74-f54d-4f6a-920b-57589215f967" d="M294.28,402.62a272.93,272.93,0,0,0,11.45,27.83A102,102,0,0,0,314.08,445a153.49,153.49,0,0,0,9.79,12.65,49.26,49.26,0,0,0,4.35,4.44,98.84,98.84,0,0,0,11.67,9,31.51,31.51,0,0,0,4.57,2.48c4.16,1.82,8.58,4.07,13.12,5.11a78.53,78.53,0,0,0,14.16,1.91,28.41,28.41,0,0,0,4.7-.21c4.57-.56,9.7-1,14.27-2.29A111.71,111.71,0,0,0,404,472.78a47,47,0,0,0,4.9-2.49c6.09-3.52,11.68-8.08,17.06-12.53a148.57,148.57,0,0,0,19.87-20.56c9-11,17.5-22.5,25.42-34.33,6.71-10,13.09-20.27,19.32-30.6s12.37-20.86,18.49-31.33c5.67-9.71,11.34-19.43,17.2-29,4.91-8.05,9.93-16,15.44-23.7q1.7-2.37,3.48-4.68l-5.63,7.28a79.14,79.14,0,0,1,9-10.11c.75-.69,1.53-1.35,2.34-2l-7.29,5.62.54-.4a27.23,27.23,0,0,0,10.1-9.27,32.33,32.33,0,0,0,7.08-26.6A26.71,26.71,0,0,0,557,234.7l-5.63-7.29a36.1,36.1,0,0,0-15.88-9.26l-9.57-1.28a35.87,35.87,0,0,0-18.17,4.91c-5.24,3.87-10.15,7.57-14.44,12.39a219.16,219.16,0,0,0-13.59,17.37c-6.52,9-12.37,18.53-18.12,28.07-6.88,11.41-13.55,22.95-20.28,34.45-7.14,12.2-14.34,24.37-21.85,36.34-7.2,11.48-14.67,22.81-22.79,33.66q-1.4,1.86-2.82,3.7l5.63-7.28a178.17,178.17,0,0,1-20.91,23.26c-1.89,1.72-3.84,3.38-5.87,4.94l7.29-5.63a59.08,59.08,0,0,1-12.88,7.78l8.6-3.63a34.61,34.61,0,0,1-8.81,2.48l9.57-1.28a26.91,26.91,0,0,1-7.06,0L379,409.7a26.24,26.24,0,0,1-6.57-1.8l8.6,3.63a32.14,32.14,0,0,1-7-4.15l7.28,5.63a49.65,49.65,0,0,1-8.71-8.91l5.63,7.28c-5.64-7.32-9.85-15.68-13.43-24.17l3.63,8.6c-1.71-4.06-3.27-8.18-4.72-12.33A40.22,40.22,0,0,0,347.17,362a26.87,26.87,0,0,0-13.39-4.27,27.27,27.27,0,0,0-14.35.64l-8.6,3.63a36.19,36.19,0,0,0-12.92,12.92l-3.63,8.6a36.35,36.35,0,0,0,0,19.14Z"/></g></g></mask></defs><g class="baeea368-f482-4f39-93db-f48ebed61020"><rect class="b919f54c-dc83-445d-8082-7f54cb00b838" x="12.5" y="12.5" width="414.61" height="414.61"/></g><path class="a7b53cbb-24d8-4a1e-8abc-065557e8aac6" d="M307.3,399a240.18,240.18,0,0,0,10.08,24.61,102.1,102.1,0,0,0,8.36,14.57c3.54,5.06,7.38,10.21,12,14.35,4,3.6,8.5,7.19,13.5,9.38a57.15,57.15,0,0,0,9.9,3.76,58.91,58.91,0,0,0,10.57,1.42,28.41,28.41,0,0,0,4.7-.21,67.68,67.68,0,0,0,10.68-1.8c11.17-3.26,20.42-9.58,29.27-16.9a148,148,0,0,0,19.87-20.56c8.3-10.12,16-20.72,23.31-31.59,6.72-10,13.09-20.27,19.32-30.6s12.38-20.86,18.49-31.33c5.67-9.72,11.34-19.43,17.2-29,4.91-8.05,9.94-16.05,15.44-23.71,1.14-1.58,2.29-3.14,3.48-4.68L530,281.27a80,80,0,0,1,9-10.11q1.14-1,2.34-2l-4.55,3.52.53-.4a17.13,17.13,0,0,0,6.32-5.8A20.22,20.22,0,0,0,548,249.88a16.65,16.65,0,0,0-2.67-8.37c-3.09-4.8-7.71-9-13.44-10.34l-6-.8a22.41,22.41,0,0,0-11.36,3.07,74,74,0,0,0-11.7,10.28,182.06,182.06,0,0,0-11.48,14.64c-6.52,9-12.38,18.53-18.12,28.06-6.88,11.41-13.55,23-20.28,34.46-7.14,12.19-14.34,24.36-21.85,36.34-7.2,11.47-14.67,22.8-22.79,33.65q-1.39,1.86-2.82,3.71l3.52-4.56a179,179,0,0,1-20.91,23.27q-2.83,2.58-5.87,4.94l4.55-3.52A58.84,58.84,0,0,1,374,422.49l5.38-2.27a34.61,34.61,0,0,1-8.81,2.48l6-.8a26.91,26.91,0,0,1-7.06,0l6,.8a26.24,26.24,0,0,1-6.57-1.8l5.37,2.26a31.94,31.94,0,0,1-7-4.14l4.56,3.52a49.7,49.7,0,0,1-8.71-8.92l3.52,4.56c-5.65-7.33-9.86-15.69-13.44-24.18l2.27,5.38c-1.71-4.06-3.27-8.18-4.72-12.34a25,25,0,0,0-10.34-13.44A16.62,16.62,0,0,0,332,371a17,17,0,0,0-9,.4c-5.45,1.76-10.7,5.14-13.45,10.34s-4.26,11.64-2.27,17.34Z" transform="translate(-80.19 -80.19)"/></svg>